<?xml version="1.0" encoding="UTF-8" standalone="no"?>
<!DOCTYPE svg PUBLIC "-//W3C//DTD SVG 1.1//EN"
 "http://www.w3.org/Graphics/SVG/1.1/DTD/svg11.dtd">
<!-- Generated by graphviz version 2.43.0 (0)
 -->
<!-- Title: snakemake_dag Pages: 1 -->
<svg width="414pt" height="337pt"
 viewBox="0.00 0.00 414.00 337.00" xmlns="http://www.w3.org/2000/svg" xmlns:xlink="http://www.w3.org/1999/xlink">
<g id="graph0" class="graph" transform="scale(1 1) rotate(0) translate(4 333)">
<title>snakemake_dag</title>
<polygon fill="white" stroke="transparent" points="-4,4 -4,-333 410,-333 410,4 -4,4"/>
<!-- 0 -->
<g id="node1" class="node">
<title>0</title>
<path fill="none" stroke="#88d856" stroke-width="2" d="M218,-36C218,-36 188,-36 188,-36 182,-36 176,-30 176,-24 176,-24 176,-12 176,-12 176,-6 182,0 188,0 188,0 218,0 218,0 224,0 230,-6 230,-12 230,-12 230,-24 230,-24 230,-30 224,-36 218,-36"/>
<text text-anchor="middle" x="203" y="-15.5" font-family="sans" font-size="10.00">all_max</text>
</g>
<!-- 1 -->
<g id="node2" class="node">
<title>1</title>
<path fill="none" stroke="#56c1d8" stroke-width="2" d="M76,-108C76,-108 12,-108 12,-108 6,-108 0,-102 0,-96 0,-96 0,-84 0,-84 0,-78 6,-72 12,-72 12,-72 76,-72 76,-72 82,-72 88,-78 88,-84 88,-84 88,-96 88,-96 88,-102 82,-108 76,-108"/>
<text text-anchor="middle" x="44" y="-93" font-family="sans" font-size="10.00">max_contig</text>
<text text-anchor="middle" x="44" y="-82" font-family="sans" font-size="10.00">assem: toy_k19</text>
</g>
<!-- 1&#45;&gt;0 -->
<g id="edge1" class="edge">
<title>1&#45;&gt;0</title>
<path fill="none" stroke="grey" stroke-width="2" d="M82.9,-71.88C108.49,-60.61 141.77,-45.96 166.8,-34.94"/>
<polygon fill="grey" stroke="grey" stroke-width="2" points="168.22,-38.14 175.96,-30.9 165.4,-31.73 168.22,-38.14"/>
</g>
<!-- 2 -->
<g id="node3" class="node">
<title>2</title>
<path fill="none" stroke="#d8bc56" stroke-width="2" d="M80,-185C80,-185 34,-185 34,-185 28,-185 22,-179 22,-173 22,-173 22,-156 22,-156 22,-150 28,-144 34,-144 34,-144 80,-144 80,-144 86,-144 92,-150 92,-156 92,-156 92,-173 92,-173 92,-179 86,-185 80,-185"/>
<text text-anchor="middle" x="57" y="-173" font-family="sans" font-size="10.00">assemble</text>
<text text-anchor="middle" x="57" y="-162" font-family="sans" font-size="10.00">kmer: 19</text>
<text text-anchor="middle" x="57" y="-151" font-family="sans" font-size="10.00">sample: toy</text>
</g>
<!-- 2&#45;&gt;1 -->
<g id="edge5" class="edge">
<title>2&#45;&gt;1</title>
<path fill="none" stroke="grey" stroke-width="2" d="M53.45,-143.69C52.04,-135.82 50.39,-126.64 48.87,-118.17"/>
<polygon fill="grey" stroke="grey" stroke-width="2" points="52.32,-117.54 47.11,-108.32 45.43,-118.78 52.32,-117.54"/>
</g>
<!-- 3 -->
<g id="node4" class="node">
<title>3</title>
<path fill="none" stroke="#d85656" stroke-width="2" d="M230,-257C230,-257 174,-257 174,-257 168,-257 162,-251 162,-245 162,-245 162,-233 162,-233 162,-227 168,-221 174,-221 174,-221 230,-221 230,-221 236,-221 242,-227 242,-233 242,-233 242,-245 242,-245 242,-251 236,-257 230,-257"/>
<text text-anchor="middle" x="202" y="-242" font-family="sans" font-size="10.00">concatenate</text>
<text text-anchor="middle" x="202" y="-231" font-family="sans" font-size="10.00">condition: toy</text>
</g>
<!-- 3&#45;&gt;2 -->
<g id="edge6" class="edge">
<title>3&#45;&gt;2</title>
<path fill="none" stroke="grey" stroke-width="2" d="M167.64,-220.82C147.79,-210.9 122.62,-198.31 101.3,-187.65"/>
<polygon fill="grey" stroke="grey" stroke-width="2" points="102.63,-184.4 92.12,-183.06 99.5,-190.66 102.63,-184.4"/>
</g>
<!-- 7 -->
<g id="node8" class="node">
<title>7</title>
<path fill="none" stroke="#d8bc56" stroke-width="2" d="M177,-185C177,-185 131,-185 131,-185 125,-185 119,-179 119,-173 119,-173 119,-156 119,-156 119,-150 125,-144 131,-144 131,-144 177,-144 177,-144 183,-144 189,-150 189,-156 189,-156 189,-173 189,-173 189,-179 183,-185 177,-185"/>
<text text-anchor="middle" x="154" y="-173" font-family="sans" font-size="10.00">assemble</text>
<text text-anchor="middle" x="154" y="-162" font-family="sans" font-size="10.00">kmer: 21</text>
<text text-anchor="middle" x="154" y="-151" font-family="sans" font-size="10.00">sample: toy</text>
</g>
<!-- 3&#45;&gt;7 -->
<g id="edge10" class="edge">
<title>3&#45;&gt;7</title>
<path fill="none" stroke="grey" stroke-width="2" d="M190.62,-220.82C185.25,-212.7 178.69,-202.79 172.61,-193.61"/>
<polygon fill="grey" stroke="grey" stroke-width="2" points="175.43,-191.53 166.99,-185.12 169.59,-195.39 175.43,-191.53"/>
</g>
<!-- 9 -->
<g id="node10" class="node">
<title>9</title>
<path fill="none" stroke="#d8bc56" stroke-width="2" d="M274,-185C274,-185 228,-185 228,-185 222,-185 216,-179 216,-173 216,-173 216,-156 216,-156 216,-150 222,-144 228,-144 228,-144 274,-144 274,-144 280,-144 286,-150 286,-156 286,-156 286,-173 286,-173 286,-179 280,-185 274,-185"/>
<text text-anchor="middle" x="251" y="-173" font-family="sans" font-size="10.00">assemble</text>
<text text-anchor="middle" x="251" y="-162" font-family="sans" font-size="10.00">kmer: 25</text>
<text text-anchor="middle" x="251" y="-151" font-family="sans" font-size="10.00">sample: toy</text>
</g>
<!-- 3&#45;&gt;9 -->
<g id="edge12" class="edge">
<title>3&#45;&gt;9</title>
<path fill="none" stroke="grey" stroke-width="2" d="M213.61,-220.82C219.1,-212.7 225.8,-202.79 232,-193.61"/>
<polygon fill="grey" stroke="grey" stroke-width="2" points="235.04,-195.36 237.74,-185.12 229.24,-191.44 235.04,-195.36"/>
</g>
<!-- 11 -->
<g id="node12" class="node">
<title>11</title>
<path fill="none" stroke="#d8bc56" stroke-width="2" d="M375,-185C375,-185 329,-185 329,-185 323,-185 317,-179 317,-173 317,-173 317,-156 317,-156 317,-150 323,-144 329,-144 329,-144 375,-144 375,-144 381,-144 387,-150 387,-156 387,-156 387,-173 387,-173 387,-179 381,-185 375,-185"/>
<text text-anchor="middle" x="352" y="-173" font-family="sans" font-size="10.00">assemble</text>
<text text-anchor="middle" x="352" y="-162" font-family="sans" font-size="10.00">kmer: 27</text>
<text text-anchor="middle" x="352" y="-151" font-family="sans" font-size="10.00">sample: toy</text>
</g>
<!-- 3&#45;&gt;11 -->
<g id="edge14" class="edge">
<title>3&#45;&gt;11</title>
<path fill="none" stroke="grey" stroke-width="2" d="M237.55,-220.82C258.55,-210.67 285.31,-197.73 307.68,-186.92"/>
<polygon fill="grey" stroke="grey" stroke-width="2" points="309.49,-189.94 316.97,-182.43 306.44,-183.63 309.49,-189.94"/>
</g>
<!-- 4 -->
<g id="node5" class="node">
<title>4</title>
<path fill="none" stroke="#56d88a" stroke-width="2" d="M181,-329C181,-329 125,-329 125,-329 119,-329 113,-323 113,-317 113,-317 113,-305 113,-305 113,-299 119,-293 125,-293 125,-293 181,-293 181,-293 187,-293 193,-299 193,-305 193,-305 193,-317 193,-317 193,-323 187,-329 181,-329"/>
<text text-anchor="middle" x="153" y="-314" font-family="sans" font-size="10.00">cutadapt</text>
<text text-anchor="middle" x="153" y="-303" font-family="sans" font-size="10.00">sample: toy_1</text>
</g>
<!-- 4&#45;&gt;3 -->
<g id="edge7" class="edge">
<title>4&#45;&gt;3</title>
<path fill="none" stroke="grey" stroke-width="2" d="M165.11,-292.7C170.87,-284.47 177.86,-274.48 184.21,-265.42"/>
<polygon fill="grey" stroke="grey" stroke-width="2" points="187.16,-267.3 190.03,-257.1 181.42,-263.29 187.16,-267.3"/>
</g>
<!-- 5 -->
<g id="node6" class="node">
<title>5</title>
<path fill="none" stroke="#56d88a" stroke-width="2" d="M279,-329C279,-329 223,-329 223,-329 217,-329 211,-323 211,-317 211,-317 211,-305 211,-305 211,-299 217,-293 223,-293 223,-293 279,-293 279,-293 285,-293 291,-299 291,-305 291,-305 291,-317 291,-317 291,-323 285,-329 279,-329"/>
<text text-anchor="middle" x="251" y="-314" font-family="sans" font-size="10.00">cutadapt</text>
<text text-anchor="middle" x="251" y="-303" font-family="sans" font-size="10.00">sample: toy_2</text>
</g>
<!-- 5&#45;&gt;3 -->
<g id="edge8" class="edge">
<title>5&#45;&gt;3</title>
<path fill="none" stroke="grey" stroke-width="2" d="M238.89,-292.7C233.13,-284.47 226.14,-274.48 219.79,-265.42"/>
<polygon fill="grey" stroke="grey" stroke-width="2" points="222.58,-263.29 213.97,-257.1 216.84,-267.3 222.58,-263.29"/>
</g>
<!-- 6 -->
<g id="node7" class="node">
<title>6</title>
<path fill="none" stroke="#56c1d8" stroke-width="2" d="M182,-108C182,-108 118,-108 118,-108 112,-108 106,-102 106,-96 106,-96 106,-84 106,-84 106,-78 112,-72 118,-72 118,-72 182,-72 182,-72 188,-72 194,-78 194,-84 194,-84 194,-96 194,-96 194,-102 188,-108 182,-108"/>
<text text-anchor="middle" x="150" y="-93" font-family="sans" font-size="10.00">max_contig</text>
<text text-anchor="middle" x="150" y="-82" font-family="sans" font-size="10.00">assem: toy_k21</text>
</g>
<!-- 6&#45;&gt;0 -->
<g id="edge2" class="edge">
<title>6&#45;&gt;0</title>
<path fill="none" stroke="grey" stroke-width="2" d="M163.1,-71.7C169.39,-63.39 177.05,-53.28 183.96,-44.14"/>
<polygon fill="grey" stroke="grey" stroke-width="2" points="186.8,-46.19 190.05,-36.1 181.22,-41.96 186.8,-46.19"/>
</g>
<!-- 7&#45;&gt;6 -->
<g id="edge9" class="edge">
<title>7&#45;&gt;6</title>
<path fill="none" stroke="grey" stroke-width="2" d="M152.91,-143.69C152.48,-135.91 151.98,-126.84 151.51,-118.45"/>
<polygon fill="grey" stroke="grey" stroke-width="2" points="155,-118.11 150.96,-108.32 148.01,-118.5 155,-118.11"/>
</g>
<!-- 8 -->
<g id="node9" class="node">
<title>8</title>
<path fill="none" stroke="#56c1d8" stroke-width="2" d="M288,-108C288,-108 224,-108 224,-108 218,-108 212,-102 212,-96 212,-96 212,-84 212,-84 212,-78 218,-72 224,-72 224,-72 288,-72 288,-72 294,-72 300,-78 300,-84 300,-84 300,-96 300,-96 300,-102 294,-108 288,-108"/>
<text text-anchor="middle" x="256" y="-93" font-family="sans" font-size="10.00">max_contig</text>
<text text-anchor="middle" x="256" y="-82" font-family="sans" font-size="10.00">assem: toy_k25</text>
</g>
<!-- 8&#45;&gt;0 -->
<g id="edge3" class="edge">
<title>8&#45;&gt;0</title>
<path fill="none" stroke="grey" stroke-width="2" d="M242.9,-71.7C236.61,-63.39 228.95,-53.28 222.04,-44.14"/>
<polygon fill="grey" stroke="grey" stroke-width="2" points="224.78,-41.96 215.95,-36.1 219.2,-46.19 224.78,-41.96"/>
</g>
<!-- 9&#45;&gt;8 -->
<g id="edge11" class="edge">
<title>9&#45;&gt;8</title>
<path fill="none" stroke="grey" stroke-width="2" d="M252.37,-143.69C252.9,-135.91 253.53,-126.84 254.11,-118.45"/>
<polygon fill="grey" stroke="grey" stroke-width="2" points="257.61,-118.54 254.81,-108.32 250.63,-118.05 257.61,-118.54"/>
</g>
<!-- 10 -->
<g id="node11" class="node">
<title>10</title>
<path fill="none" stroke="#56c1d8" stroke-width="2" d="M394,-108C394,-108 330,-108 330,-108 324,-108 318,-102 318,-96 318,-96 318,-84 318,-84 318,-78 324,-72 330,-72 330,-72 394,-72 394,-72 400,-72 406,-78 406,-84 406,-84 406,-96 406,-96 406,-102 400,-108 394,-108"/>
<text text-anchor="middle" x="362" y="-93" font-family="sans" font-size="10.00">max_contig</text>
<text text-anchor="middle" x="362" y="-82" font-family="sans" font-size="10.00">assem: toy_k27</text>
</g>
<!-- 10&#45;&gt;0 -->
<g id="edge4" class="edge">
<title>10&#45;&gt;0</title>
<path fill="none" stroke="grey" stroke-width="2" d="M323.1,-71.88C297.51,-60.61 264.23,-45.96 239.2,-34.94"/>
<polygon fill="grey" stroke="grey" stroke-width="2" points="240.6,-31.73 230.04,-30.9 237.78,-38.14 240.6,-31.73"/>
</g>
<!-- 11&#45;&gt;10 -->
<g id="edge13" class="edge">
<title>11&#45;&gt;10</title>
<path fill="none" stroke="grey" stroke-width="2" d="M354.73,-143.69C355.81,-135.91 357.06,-126.84 358.21,-118.45"/>
<polygon fill="grey" stroke="grey" stroke-width="2" points="361.71,-118.7 359.61,-108.32 354.78,-117.75 361.71,-118.7"/>
</g>
</g>
</svg>
